# xmcd
#
# Track frame offsets:
#	150
#	29839
#	67838
#	89323
#	106323
#	135032
#	167165
#	200532
#	255084
#	292676
#	324332
#
# Disc length: 4590 seconds
#
# Revision: 0
# Processed by: cddbd v1.5.2PL0 Copyright (c) Steve Scherf et al.
# Submitted via: EZCDAudioConverter 2.1.7.1
#
DISCID=8611ec0b
DTITLE=V/A - Eskimonde 2/5
DYEAR=1900
DGENRE=
TTITLE0=Low Motion Disco - Love Love Love [Aeroplane Mix]
TTITLE1=LSB - Original Highway Delight
TTITLE2=Maelstrom - Petrichor
TTITLE3=Aeroplane - Without Lies [Breakbot Remix]
TTITLE4=Reverso 68 - Tokyo Disko (Part 1)
TTITLE5=In Flagranti - Personal Angst
TTITLE6=Visti and Meyland - Yes Maam (All Nite Long) [Trentemøller Remix]
TTITLE7=Allez Allez - Allez Allez [Lindstrøm and Prins Thomas Remix]
TTITLE8=Dance Disorder - My Time [Radio Slave's Rekids Tribe Mix]
TTITLE9=Neon Judgement - TV Treated [Tiga's Treated Vox]
TTITLE10=The Sexmachines - Okay [Whitey Mix]
EXTD=
EXTT0=
EXTT1=
EXTT2=
EXTT3=
EXTT4=
EXTT5=
EXTT6=
EXTT7=
EXTT8=
EXTT9=
EXTT10=
PLAYORDER=
